<!-- Generator: Adobe Illustrator 24.1.1, SVG Export Plug-In  -->
<svg version="1.0" xmlns="http://www.w3.org/2000/svg" xmlns:xlink="http://www.w3.org/1999/xlink" x="0px" y="0px" width="50px"
	 height="50px" viewBox="0 0 50 50" style="enable-background:new 0 0 50 50;" xml:space="preserve">
<style type="text/css">
	.st0{fill:#FFFFFF;}
</style>
<defs>
</defs>
<g>
	<g>
		<g>
			<g>
				<path class="st0" d="M48.2,25.5l-14.2,0c-1.7,0-3.3,1.1-3.7,2.8c-0.6,2.5,1.2,4.7,3.6,4.8c0.8,0,1.5,0.4,1.8,1.1
					c0.7,1.5-0.4,2.9-1.8,2.9H14.8c-0.5,0-0.9,0.4-0.9,0.9s0.4,0.9,0.9,0.9l19,0c1.7,0,3.3-1.1,3.7-2.8c0.6-2.5-1.2-4.7-3.6-4.8
					c-0.8,0-1.5-0.4-1.8-1.1c-0.7-1.5,0.4-2.9,1.8-2.9l14.3,0c0.5,0,0.9-0.4,0.9-0.9C49.1,25.9,48.7,25.5,48.2,25.5z"/>
			</g>
		</g>
		<g>
			<g>
				<path class="st0" d="M18.1,17.9l-4,4.8c-0.2,0.2-0.3,0.5-0.2,0.8l2.4,8.6l3.4-8.2c0.2-0.5,0.7-0.7,1.2-0.5
					c0.5,0.2,0.7,0.7,0.5,1.2L18,32.7l7.8-4.3c0.3-0.1,0.4-0.4,0.5-0.7l0.6-6.2L18.1,17.9z"/>
			</g>
		</g>
		<g>
			<g>
				<path class="st0" d="M29.1,12.8l-6.5-2.7c-0.2-0.1-0.5-0.1-0.7,0c-0.2,0.1-0.4,0.3-0.5,0.5L19,16.3l8.2,3.4l2.4-5.7
					C29.8,13.5,29.6,13,29.1,12.8z"/>
			</g>
		</g>
		<g>
			<g>
				<path class="st0" d="M30.8,11.4l0.1-0.2c0.2-0.5,0-1-0.5-1.2l-6.6-2.8c-0.2-0.1-0.5-0.1-0.7,0c-0.2,0.1-0.4,0.3-0.5,0.5
					l-0.1,0.1c-0.2,0.4,0,0.9,0.5,1.1l6.7,2.9C30.1,12,30.6,11.8,30.8,11.4z"/>
			</g>
		</g>
	</g>
	<g>
		<path class="st0" d="M25,50C11.2,50,0,38.8,0,25C0,11.2,11.2,0,25,0s25,11.2,25,25C50,38.8,38.8,50,25,50z M25,3.5
			C13.1,3.5,3.5,13.1,3.5,25c0,11.9,9.7,21.5,21.5,21.5S46.5,36.9,46.5,25C46.5,13.1,36.9,3.5,25,3.5z"/>
	</g>
</g>
</svg>
