<?xml version="1.0" encoding="UTF-8"?>
<!-- Generator: Adobe Illustrator 25.1.0, SVG Export Plug-In . SVG Version: 6.00 Build 0)  -->
<svg version="1.0" id="Livello_1" xmlns="http://www.w3.org/2000/svg" xmlns:xlink="http://www.w3.org/1999/xlink" x="0px" y="0px" viewBox="0 0 101.1 108.5" style="enable-background:new 0 0 101.1 108.5;" xml:space="preserve">
<style type="text/css">
	.st0{fill:#FFFFFF;}
</style>
<g id="Livello_2_1_">
	<g id="Livello_1-2">
		<path class="st0" d="M30.6,15.7l3.4-1.2L75.5,0.2c1.1-0.4,2.3-0.2,3.1,0.6c0.9,0.8,1.5,1.7,1.9,2.8c1.2,3.1,2.4,6.1,3.6,9.3    c1,2.9,1.4,5.9,1.2,8.9c-0.1,1.3-0.3,2.6-0.3,3.9c-0.1,1-0.1,2,0,3c0.1,1.3,0.2,2.6,0.4,3.9c0.3,2.6,1.2,5,2.8,7.1    c2.8,3.6,5.5,7.3,8.3,11c1.4,1.9,2.7,3.9,3.8,6c0.4,0.8,0.7,1.6,0.7,2.5c0.1,0.8-0.1,1.5-0.4,2.2c-0.7,1.3-1.6,2.4-2.7,3.3    c-1.2,1.1-2.6,2-4.1,2.8c-1.1,0.6-2.2,1.3-3,2.3c-0.8,1-1,2.4-0.5,3.6l0.9,2.3c0.7,1.3,0.5,3-0.5,4.1c-0.2,0.4-0.5,0.8-0.8,1.1    c-0.5,0.7-0.6,1.6-0.4,2.5l0.3,1.2c0.1,0.9-0.1,1.9-0.8,2.6c-0.6,0.6-1.1,1.3-1.6,1.9c-1.1,1.2-1.6,2.8-1.5,4.4    c0.1,1,0.3,1.9,0.6,2.8c0.4,1.6,0.6,3.3,0.5,4.9c-0.1,2.8-1.6,5.3-4.1,6.6c-1.2,0.6-2.6,0.8-4,0.6l-5.2-0.9    c-6.5-1.1-12.8-2.7-19.2-4.1l-6.7-1.4h-0.2c11.2-7.2,18.5-17.2,21.2-30.2c2.9-12.5,0.3-25.6-7.1-36.1    C54.2,24.6,43.6,18.1,30.6,15.7z"/>
		<path class="st0" d="M12.2,57.5c-4.8,0-8-1.3-9.7-3.9S0,46.7,0,40.7s0.9-10.3,2.6-12.8s4.9-3.8,9.6-3.8c3.1,0,6.2,0.4,9.2,1.1v4.3    c-2.8-0.5-5.7-0.8-8.6-0.8c-2.8,0-4.7,0.9-5.7,2.6c-1,1.7-1.6,4.8-1.6,9.5S6,48.6,7,50.3s2.9,2.5,5.7,2.5c2.9,0,5.8-0.2,8.7-0.7    v4.4C18.4,57.2,15.3,57.5,12.2,57.5z"/>
		<path class="st0" d="M25.5,29.3v-5.4h5.2v5.4H25.5z M25.5,57V33.3h5.2V57H25.5z"/>
		<path class="st0" d="M52.9,52.7h1.3v3.8c-3.2,0.7-6.4,1.1-9.6,1.1c-3.5,0-6-0.9-7.5-2.9s-2.3-5-2.3-9.2c0-8.4,3.4-12.6,10.3-12.6    S55,36.5,55,43.8l-0.3,3.6H40.1c-0.1,1.6,0.4,3.1,1.3,4.4c0.8,0.9,2.3,1.3,4.6,1.3L52.9,52.7z M50,43.4c0-2.4-0.3-4-1.1-4.9    s-2-1.4-3.7-1.4c-1.4-0.1-2.9,0.4-3.9,1.4c-0.8,1-1.2,2.6-1.2,4.9H50z"/>
		<path class="st0" d="M20.2,95.7V63.3h5.3v32.4H20.2z"/>
		<path class="st0" d="M42.2,95.7H30.9V63.3h11.3c4.9,0,8.4,1.2,10.2,3.8s2.7,6.5,2.7,11.9c0.1,2.3-0.1,4.6-0.5,6.9    c-0.3,1.8-1,3.6-1.9,5.2C50.9,94.2,47.4,95.7,42.2,95.7z M49.7,79c0-4-0.5-6.8-1.5-8.5s-3-2.6-6-2.6h-6v23.2h6    c3.1,0,5.2-1.2,6.2-3.5c0.5-1.2,0.9-2.4,1-3.7C49.6,82.3,49.7,80.6,49.7,79z"/>
	</g>
</g>
</svg>