<?xml version="1.0" encoding="UTF-8" standalone="no"?>
<!DOCTYPE svg PUBLIC "-//W3C//DTD SVG 1.1//EN" "http://www.w3.org/Graphics/SVG/1.1/DTD/svg11.dtd">
<svg width="100%" height="100%" viewBox="0 0 898 1089" version="1.1" xmlns="http://www.w3.org/2000/svg" xmlns:xlink="http://www.w3.org/1999/xlink" xml:space="preserve" xmlns:serif="http://www.serif.com/" style="fill-rule:evenodd;clip-rule:evenodd;stroke-miterlimit:16;">
    <g transform="matrix(8.33333,0,0,8.33333,-3414.21,-4419.95)">
        <path d="M409.705,532.189C409.705,531.198 410.508,530.394 411.5,530.394L515.626,530.394C516.617,530.394 517.421,531.198 517.421,532.189L517.421,659.205C517.421,660.196 516.617,661 515.626,661L411.5,661C410.508,661 409.705,660.196 409.705,659.205L409.705,532.189Z" style="fill:rgb(174,110,239);fill-opacity:0.24;fill-rule:nonzero;"/>
    </g>
    <g transform="matrix(-3.74016,0,0,3.74016,4076.77,-1271.65)">
        <path d="M870,603L1070,603" style="fill:none;fill-rule:nonzero;stroke:rgb(174,110,239);stroke-width:2px;"/>
    </g>
    <g transform="matrix(8.33333,0,0,8.33333,-3414.21,-3724.81)">
        <path d="M508.358,557.708C508.474,557.581 508.474,557.358 508.358,557.231C508.242,557.104 508.097,556.945 507.924,556.754C507.402,556.214 506.968,555.801 506.679,555.546C506.186,555.101 505.897,554.815 505.549,554.529C505.289,554.275 504.97,554.02 504.507,553.607C504.391,553.512 504.304,553.416 504.217,553.321C504.594,553.035 504.97,552.717 505.347,552.431L505.491,552.304C505.897,551.986 506.331,551.668 506.765,551.35C506.939,551.254 507.113,551.127 507.258,551C507.402,550.873 507.402,550.65 507.287,550.523C507.171,550.364 506.968,550.364 506.852,550.491C506.736,550.587 506.621,550.682 506.505,550.746L506.418,550.778C505.955,551.095 505.52,551.413 505.086,551.763L504.97,551.858C504.536,552.176 504.13,552.494 503.696,552.844C503.609,552.78 503.551,552.717 503.493,552.653C503.175,552.367 502.972,552.176 502.596,551.827C502.364,551.668 501.466,550.936 501.177,550.714L501.148,550.682C501.09,550.619 500.945,550.491 500.743,550.364C500.714,550.364 500.714,550.332 500.685,550.332C500.627,550.205 500.453,550.174 500.308,550.237C500.163,550.301 500.077,550.523 500.163,550.682C500.221,550.873 500.337,550.936 500.424,550.968L500.453,550.968C500.598,551.064 500.685,551.159 500.743,551.191C500.771,551.223 500.801,551.223 500.801,551.254C501.061,551.477 501.872,552.145 502.19,552.399C502.567,552.717 502.77,552.908 503.059,553.194C503.088,553.225 503.117,553.257 503.146,553.289C502.914,553.48 502.683,553.671 502.48,553.861C501.814,554.465 501.148,555.133 500.482,555.864C500.308,556.055 500.135,556.246 499.961,556.468C499.845,556.564 499.787,556.691 499.758,556.85C499.729,557.04 499.845,557.231 500.019,557.263L500.077,557.263C500.221,557.263 500.366,557.136 500.395,556.977C500.569,556.754 500.743,556.564 500.916,556.373C501.582,555.642 502.219,555.006 502.885,554.434C503.146,554.211 503.406,553.988 503.667,553.766C503.783,553.893 503.928,553.988 504.073,554.147C504.536,554.561 504.854,554.847 505.115,555.069C505.462,555.387 505.752,555.642 506.244,556.087C506.505,556.341 506.939,556.723 507.46,557.263C507.634,557.454 507.779,557.613 507.895,557.708C507.953,557.772 508.039,557.803 508.126,557.803C508.213,557.803 508.3,557.772 508.358,557.708Z" style="fill:rgb(174,110,239);fill-rule:nonzero;"/>
    </g>
    <g transform="matrix(8.33333,0,0,8.33333,-3414.21,-5298.88)">
        <path d="M418.681,648.433C418.681,646.45 420.289,644.842 422.272,644.842L494.531,644.842C496.515,644.842 498.122,646.45 498.122,648.433C498.122,650.416 496.515,652.024 494.531,652.024L422.272,652.024C420.289,652.024 418.681,650.416 418.681,648.433Z" style="fill:rgb(174,110,239);fill-rule:nonzero;"/>
    </g>
    <g transform="matrix(8.33333,0,0,8.33333,-3414.21,-5066.99)">
        <path d="M418.681,634.52C418.681,633.776 419.284,633.173 420.028,633.173L487.35,633.173C488.094,633.173 488.697,633.776 488.697,634.52C488.697,635.263 488.094,635.866 487.35,635.866L420.028,635.866C419.284,635.866 418.681,635.263 418.681,634.52Z" style="fill:rgb(174,110,239);fill-rule:nonzero;"/>
    </g>
    <g transform="matrix(8.33333,0,0,8.33333,-3414.21,-4902.43)">
        <path d="M418.681,624.646C418.681,623.902 419.284,623.299 420.028,623.299L480.169,623.299C480.913,623.299 481.516,623.902 481.516,624.646C481.516,625.389 480.913,625.992 480.169,625.992L420.028,625.992C419.284,625.992 418.681,625.389 418.681,624.646Z" style="fill:rgb(174,110,239);fill-rule:nonzero;"/>
    </g>
    <g transform="matrix(8.33333,0,0,8.33333,-3414.21,-4737.86)">
        <path d="M418.681,614.772C418.681,614.028 419.284,613.425 420.028,613.425L490.043,613.425C490.787,613.425 491.39,614.028 491.39,614.772C491.39,615.515 490.787,616.118 490.043,616.118L420.028,616.118C419.284,616.118 418.681,615.515 418.681,614.772Z" style="fill:rgb(174,110,239);fill-rule:nonzero;"/>
    </g>
    <g transform="matrix(8.33333,0,0,8.33333,-3414.21,-4468.57)">
        <path d="M426.76,598.614C426.76,597.87 427.363,597.268 428.106,597.268L468.051,597.268C468.795,597.268 469.398,597.87 469.398,598.614C469.398,599.358 468.795,599.961 468.051,599.961L428.106,599.961C427.363,599.961 426.76,599.358 426.76,598.614Z" style="fill:rgb(174,110,239);fill-rule:nonzero;"/>
    </g>
    <g transform="matrix(-8.33333,0,0,8.33333,3586.25,-4468.57)">
        <circle cx="420.028" cy="598.614" r="1.346" style="fill:rgb(174,110,239);"/>
    </g>
    <g transform="matrix(8.33333,0,0,8.33333,-3414.21,-4274.08)">
        <path d="M426.76,586.945C426.76,586.201 427.363,585.598 428.106,585.598L500.366,585.598C501.11,585.598 501.713,586.201 501.713,586.945C501.713,587.688 501.11,588.291 500.366,588.291L428.106,588.291C427.363,588.291 426.76,587.688 426.76,586.945Z" style="fill:rgb(174,110,239);fill-rule:nonzero;"/>
    </g>
    <g transform="matrix(-8.33333,0,0,8.33333,3586.25,-4274.08)">
        <circle cx="420.028" cy="586.945" r="1.346" style="fill:rgb(174,110,239);"/>
    </g>
    <g transform="matrix(8.33333,0,0,8.33333,-3414.21,-4079.59)">
        <path d="M426.76,575.275C426.76,574.532 427.363,573.929 428.106,573.929L489.146,573.929C489.889,573.929 490.492,574.532 490.492,575.275C490.492,576.019 489.889,576.622 489.146,576.622L428.106,576.622C427.363,576.622 426.76,576.019 426.76,575.275Z" style="fill:rgb(174,110,239);fill-rule:nonzero;"/>
    </g>
    <g transform="matrix(-8.33333,0,0,8.33333,3586.25,-4079.59)">
        <circle cx="420.028" cy="575.276" r="1.346" style="fill:rgb(174,110,239);"/>
    </g>
</svg>
