<?xml version="1.0" encoding="utf-8"?>
<!-- Generator: Adobe Illustrator 24.1.1, SVG Export Plug-In . SVG Version: 6.00 Build 0)  -->
<svg version="1.0" id="Livello_1" xmlns="http://www.w3.org/2000/svg" xmlns:xlink="http://www.w3.org/1999/xlink" x="0px" y="0px"
	 viewBox="0 0 240 290" style="enable-background:new 0 0 240 290;" xml:space="preserve">
<style type="text/css">
	.st0{fill:#D7F1F2;}
	.st1{fill:#62CBD4;}
	.st2{fill:#50B0B6;}
</style>
<g id="Livello_2_1_">
	<g id="Livello_1-2">
		<g>
			<path class="st0" d="M4,0h232c2.2,0,4,1.8,4,4v282c0,2.2-1.8,4-4,4H4c-2.2,0-4-1.8-4-4V4C0,1.8,1.8,0,4,0z"/>
			<path class="st1" d="M28,19.3h159.2c4.6,0,8.4,3.8,8.4,8.4l0,0c0,4.6-3.8,8.4-8.4,8.4H28c-4.6,0-8.4-3.8-8.4-8.4l0,0
				C19.6,23.1,23.4,19.3,28,19.3z"/>
			<path class="st2" d="M22.6,56h148.5c1.7,0,3,1.3,3,3v0.2c0,1.7-1.3,3-3,3H22.6c-1.7,0-3-1.3-3-3V59C19.6,57.3,20.9,56,22.6,56z"
				/>
			<path class="st2" d="M22.6,78.3h124c1.7,0,3,1.3,3,3v0.2c0,1.7-1.3,3-3,3h-124c-1.7,0-3-1.3-3-3v-0.2
				C19.6,79.6,20.9,78.3,22.6,78.3z"/>
			<path class="st2" d="M22.6,100.6h154.9c1.7,0,3,1.3,3,3v0.2c0,1.7-1.3,3-3,3H22.6c-1.7,0-3-1.3-3-3v-0.2
				C19.6,101.9,20.9,100.6,22.6,100.6z"/>
			<path class="st2" d="M40.8,132.1h89.3c1.7,0,3,1.3,3,3v0.2c0,1.7-1.3,3-3,3H40.8c-1.7,0-3-1.3-3-3v-0.2
				C37.8,133.4,39.2,132.1,40.8,132.1z"/>
			<path class="st2" d="M40.8,158.3H202c1.7,0,3,1.3,3,3v0.2c0,1.7-1.3,3-3,3H40.8c-1.7,0-3-1.3-3-3v-0.2
				C37.8,159.7,39.2,158.3,40.8,158.3z"/>
			<path class="st2" d="M40.8,184.6h134.9c1.7,0,3,1.3,3,3v0.2c0,1.7-1.3,3-3,3H40.8c-1.7,0-3-1.3-3-3v-0.2
				C37.8,185.9,39.2,184.6,40.8,184.6z"/>
			<circle class="st1" cx="23" cy="135.5" r="3.4"/>
			<circle class="st1" cx="23" cy="161.4" r="3.4"/>
			<circle class="st1" cx="23" cy="187.3" r="3.4"/>
			<rect x="21.2" y="266.2" class="st2" width="199.3" height="2.3"/>
			<path class="st1" d="M218.3,251.8c-0.3-0.3-0.7-0.6-1.1-1.1c-1.4-1.3-2.5-2.2-3.2-2.8c-1.3-1.1-2.1-1.7-2.9-2.4
				c-0.7-0.6-1.5-1.2-2.7-2.2l-0.8-0.6c1-0.7,2-1.4,2.9-2.1l0.4-0.3c1.1-0.8,2.2-1.5,3.3-2.2c0.5-0.2,0.9-0.5,1.3-0.8
				c0.3-0.3,0.3-0.9,0-1.2c-0.3-0.3-0.7-0.3-1-0.1c-0.3,0.2-0.6,0.4-0.9,0.6l-0.1,0.1c-1.2,0.7-2.3,1.5-3.4,2.3l-0.4,0.3
				c-1.1,0.8-2.2,1.5-3.3,2.3l-0.5-0.5c-0.8-0.7-1.3-1.1-2.3-1.9c-0.6-0.4-2.9-2.2-3.6-2.7h-0.1c-0.3-0.3-0.6-0.5-1-0.7l-0.1-0.1
				l0,0c-0.2-0.3-0.6-0.4-1-0.3c-0.4,0.2-0.6,0.7-0.4,1.1c0.1,0.3,0.4,0.5,0.7,0.7h0.1c0.3,0.1,0.5,0.3,0.8,0.5c0,0,0.1,0.1,0.2,0.1
				c0.7,0.5,2.8,2,3.6,2.7c1,0.8,1.5,1.2,2.3,1.9l0.3,0.2c-0.6,0.4-1.2,0.9-1.8,1.4c-1.8,1.5-3.5,3-5.2,4.7
				c-0.5,0.4-0.9,0.9-1.4,1.4c-0.2,0.2-0.4,0.5-0.5,0.9c-0.1,0.4,0.2,0.9,0.7,0.9c0,0,0,0,0,0h0.1c0.4,0,0.7-0.3,0.8-0.6l0,0
				c0.4-0.5,0.9-0.9,1.4-1.4c1.6-1.6,3.3-3.2,5.1-4.6c0.6-0.5,1.3-1,2-1.6l1.1,0.9c1.2,1,2,1.6,2.7,2.2c0.9,0.7,1.7,1.3,2.9,2.4
				c0.7,0.6,1.8,1.5,3.1,2.8c0.5,0.4,0.9,0.8,1.1,1.1c0.1,0.1,0.3,0.2,0.6,0.2c0.2,0,0.4-0.1,0.6-0.3
				C218.7,252.7,218.7,252.2,218.3,251.8C218.4,251.9,218.3,251.8,218.3,251.8z"/>
		</g>
	</g>
</g>
</svg>
