<?xml version="1.0" encoding="utf-8"?>
<!-- Generator: Adobe Illustrator 24.1.1, SVG Export Plug-In . SVG Version: 6.00 Build 0)  -->
<svg version="1.0" id="Livello_1" xmlns="http://www.w3.org/2000/svg" xmlns:xlink="http://www.w3.org/1999/xlink" x="0px" y="0px"
	 viewBox="0 0 240 290" style="enable-background:new 0 0 240 290;" xml:space="preserve">
<style type="text/css">
	.st0{fill:#EAF4E9;}
	.st1{fill:#75D495;}
	.st2{fill:#90C0A0;}
</style>
<g id="Livello_2_1_">
	<g id="Livello_1-2">
		<g>
			<path class="st0" d="M4,0h232c2.2,0,4,1.8,4,4v282c0,2.2-1.8,4-4,4H4c-2.2,0-4-1.8-4-4V4C0,1.8,1.8,0,4,0z"/>
			<g>
				<path class="st1" d="M28,19.3h159.2c4.6,0,8.4,3.8,8.4,8.4l0,0c0,4.6-3.8,8.4-8.4,8.4H28c-4.6,0-8.4-3.8-8.4-8.4l0,0
					C19.6,23.1,23.4,19.3,28,19.3z"/>
				<path class="st2" d="M22.6,56h148.5c1.7,0,3,1.3,3,3v0.2c0,1.7-1.3,3-3,3H22.6c-1.7,0-3-1.3-3-3V59C19.6,57.3,20.9,56,22.6,56z"
					/>
				<path class="st2" d="M22.6,78.3h124c1.7,0,3,1.3,3,3v0.2c0,1.7-1.3,3-3,3h-124c-1.7,0-3-1.3-3-3v-0.2
					C19.6,79.6,20.9,78.3,22.6,78.3z"/>
				<path class="st2" d="M22.6,100.6h154.9c1.7,0,3,1.3,3,3v0.2c0,1.7-1.3,3-3,3H22.6c-1.7,0-3-1.3-3-3v-0.2
					C19.6,101.9,20.9,100.6,22.6,100.6z"/>
				<path class="st2" d="M40.8,132.1h89.3c1.7,0,3,1.3,3,3v0.2c0,1.7-1.3,3-3,3H40.8c-1.7,0-3-1.3-3-3v-0.2
					C37.8,133.4,39.2,132.1,40.8,132.1z"/>
				<path class="st2" d="M40.8,158.3H202c1.7,0,3,1.3,3,3v0.2c0,1.7-1.3,3-3,3H40.8c-1.7,0-3-1.3-3-3v-0.2
					C37.8,159.7,39.2,158.3,40.8,158.3z"/>
				<path class="st2" d="M40.8,184.6h134.9c1.7,0,3,1.3,3,3v0.2c0,1.7-1.3,3-3,3H40.8c-1.7,0-3-1.3-3-3v-0.2
					C37.8,185.9,39.2,184.6,40.8,184.6z"/>
				<circle class="st1" cx="23" cy="135.5" r="3.4"/>
				<circle class="st1" cx="23" cy="161.4" r="3.4"/>
				<circle class="st1" cx="23" cy="187.3" r="3.4"/>
				<rect x="21.2" y="266.2" class="st2" width="199.3" height="2.3"/>
				<path class="st1" d="M86.1,267c0-7.3,1.6-14.4,4.7-21c2.8-5.9,7-11.6,12.9-14.7c1.3-0.7,3-1.5,4.5-1.4c0.9,0.1,1.3,0.7,1.4,1.8
					c0.4,2.3-0.7,4.8-1.5,6.9c-2.2,5.8-4.4,11.4-5.4,17.6c-0.3,2-0.6,4-0.7,6c-0.1,1.7-0.4,3.8,0.6,5.3c2,3.1,5.8,1.1,7.6-1.1
					c1.9-2.4,3.5-5,4.9-7.6c0.6-1.1,1.3-2.3,2.7-2.5s1.5,0.7,1.5,1.8c-0.1,3.3-1.2,6.5-0.1,9.7c0.6,1.6,1.8,3.1,3.7,3
					s3.2-1.8,4.1-3.2c1.2-1.6,2-3.5,3.1-5.3c0.9-1.3,2.5-4.1,4.5-3.2c0.9,0.5,1.1,1.7,1.1,2.6c0.1,1.3,0,2.6,0.1,3.9
					c0.3,2.7,2,4.8,4.9,4.5c3.4-0.4,5.8-2.2,8.3-4.4c1-1,2.4-1.6,3.9-1.5c2.6,0.2,5,1,7.3,2.2c1.9,0.9,3.7,1.9,5.5,3
					c1.3,0.8,2.5-1.2,1.2-2c-3.1-2.1-6.5-3.7-10-4.9c-2-0.7-4.1-0.8-6.1-0.5c-2,0.5-3.3,2-4.9,3.3s-6.5,4.2-7.5,1
					c-0.7-2.4,0.2-5.1-0.9-7.5c-0.6-1.3-1.7-2.1-3.1-2.3c-2-0.1-3.8,0.8-4.9,2.4c-1.2,1.6-2.3,3.3-3.2,5.1c-0.6,1-2.7,5.2-4.2,3.9
					c-1.3-1-1.1-3.6-1-5.1c0.1-1.6,0.5-3.2,0.6-4.8c0.2-1.2-0.2-2.5-0.9-3.4c-1.1-0.9-2.6-1.2-3.9-0.8c-2.8,0.9-4,4-5.3,6.3
					c-0.8,1.4-1.7,2.8-2.7,4.1c-0.7,0.9-2.2,2.6-3.5,2.3c-1.8-0.3-1-4-0.9-5.2c0.2-2.1,0.4-4.2,0.8-6.2c1.1-6,3.4-11.5,5.5-17.2
					c0.9-2.4,1.8-5.2,0.9-7.8c-0.9-2.7-3.4-3.1-5.9-2.4c-6.4,1.9-11.5,7.4-14.8,12.9c-3.8,6.3-6.1,13.4-6.9,20.8
					c-0.2,1.8-0.3,3.6-0.3,5.5c0.1,0.6,0.6,1.1,1.3,1.1C85.7,268,86.1,267.6,86.1,267L86.1,267z"/>
			</g>
		</g>
	</g>
</g>
</svg>
