<?xml version="1.0" encoding="utf-8"?>
<!-- Generator: Adobe Illustrator 25.2.0, SVG Export Plug-In . SVG Version: 6.00 Build 0)  -->
<svg version="1.0" id="Livello_1" xmlns="http://www.w3.org/2000/svg" xmlns:xlink="http://www.w3.org/1999/xlink" x="0px" y="0px"
	 viewBox="0 0 240 290" style="enable-background:new 0 0 240 290;" xml:space="preserve">
<style type="text/css">
	.st0{fill:#EAF4E9;}
	.st1{fill:#75D495;}
	.st2{fill:#90C0A0;}
</style>
<g id="Livello_2_1_">
	<g id="Livello_1-2">
		<path class="st0" d="M4,0h232c2.2,0,4,1.8,4,4v282c0,2.2-1.8,4-4,4H4c-2.2,0-4-1.8-4-4V4C0,1.8,1.8,0,4,0z"/>
		<path class="st1" d="M28,19.3h159.2c4.6,0,8.4,3.8,8.4,8.4l0,0c0,4.6-3.8,8.4-8.4,8.4H28c-4.6,0-8.4-3.8-8.4-8.4l0,0
			C19.6,23.1,23.4,19.3,28,19.3z"/>
		<path class="st2" d="M22.6,56h148.5c1.7,0,3,1.3,3,3v0.2c0,1.7-1.3,3-3,3H22.6c-1.7,0-3-1.3-3-3V59C19.6,57.3,20.9,56,22.6,56z"/>
		<path class="st2" d="M22.6,78.3h124c1.7,0,3,1.3,3,3v0.2c0,1.7-1.3,3-3,3h-124c-1.7,0-3-1.3-3-3v-0.2
			C19.6,79.6,20.9,78.3,22.6,78.3z"/>
		<path class="st2" d="M40.8,112.1h89.3c1.7,0,3,1.3,3,3v0.2c0,1.7-1.3,3-3,3H40.8c-1.7,0-3-1.3-3-3v-0.2
			C37.8,113.4,39.2,112.1,40.8,112.1z"/>
		<path class="st2" d="M40.8,138.3H202c1.7,0,3,1.3,3,3v0.2c0,1.7-1.3,3-3,3H40.8c-1.7,0-3-1.3-3-3v-0.2
			C37.8,139.7,39.2,138.3,40.8,138.3z"/>
		<circle class="st1" cx="23" cy="115.5" r="3.4"/>
		<circle class="st1" cx="23" cy="141.4" r="3.4"/>
		<rect x="21.2" y="188.8" class="st2" width="199.3" height="2.3"/>
		<path class="st1" d="M98.1,191.9c0-5.1,1.1-10,3.3-14.6c2-4.1,4.9-8.1,9-10.2c0.9-0.6,2-1,3.1-1c0.6,0.1,0.9,0.5,1,1.2
			c0.3,1.6-0.5,3.3-1,4.8c-1.7,3.9-2.9,8-3.8,12.2c-0.2,1.4-0.4,2.8-0.5,4.2c-0.1,1.2-0.3,2.6,0.4,3.7c1.4,2.2,4,0.7,5.3-0.8
			c1.3-1.7,2.4-3.4,3.4-5.3c0.4-0.8,0.9-1.6,1.9-1.8s1,0.5,1,1.2c-0.1,2.3-0.8,4.5-0.1,6.8c0.3,1.2,1.3,2.1,2.6,2.1
			c1.3-0.1,2.2-1.3,2.9-2.2c0.8-1.1,1.4-2.5,2.1-3.7c0.6-0.9,1.7-2.9,3.1-2.2c0.6,0.3,0.7,1.2,0.8,1.8c0.1,0.9,0,1.8,0.1,2.7
			c0.2,1.9,1.4,3.4,3.4,3.1c2.4-0.3,4.1-1.5,5.8-3c0.7-0.7,1.7-1.1,2.7-1c1.8,0.1,3.5,0.7,5.1,1.5c1.3,0.6,2.6,1.3,3.8,2.1
			c0.9,0.6,1.7-0.9,0.8-1.4c-2.2-1.4-4.5-2.6-7-3.4c-1.4-0.5-2.8-0.6-4.3-0.3c-1.4,0.4-2.3,1.4-3.4,2.3s-4.5,2.9-5.2,0.7
			c-0.5-1.7,0.1-3.5-0.6-5.2c-0.4-0.9-1.2-1.5-2.1-1.6c-1.4-0.1-2.7,0.6-3.4,1.7c-0.8,1.1-1.6,2.3-2.2,3.5c-0.4,0.7-1.9,3.6-2.9,2.7
			c-0.9-0.7-0.8-2.5-0.7-3.5s0.3-2.2,0.4-3.3c0.1-0.9-0.1-1.7-0.7-2.4c-0.7-0.7-1.8-0.9-2.7-0.5c-1.9,0.6-2.8,2.8-3.7,4.4
			c-0.6,1-1.2,1.9-1.9,2.9c-0.5,0.6-1.5,1.8-2.4,1.6c-1.3-0.2-0.7-2.8-0.6-3.6c0.1-1.4,0.3-2.9,0.6-4.3c0.8-4.2,2.4-8,3.9-12
			c0.6-1.7,1.2-3.6,0.6-5.4s-2.4-2.2-4.1-1.7c-4.5,1.3-8,5.1-10.4,9c-2.6,4.4-4.2,9.3-4.8,14.4c-0.1,1.3-0.2,2.5-0.2,3.8
			c0,0.5,0.4,0.8,0.8,0.8C97.7,192.8,98.1,192.4,98.1,191.9L98.1,191.9z"/>
		<rect x="20.4" y="227.5" class="st2" width="199.3" height="2.3"/>
		<path class="st1" d="M217.6,222.5l-1-0.9c-1.2-1.1-2.1-1.9-2.7-2.4c-1.1-0.9-1.7-1.4-2.5-2c-0.6-0.5-1.3-1-2.3-1.8l-0.6-0.5
			c0.8-0.6,1.7-1.2,2.5-1.8l0.3-0.2c0.9-0.6,1.8-1.3,2.8-1.9c0.4-0.2,0.7-0.4,1.1-0.7c0.3-0.2,0.3-0.7,0.1-1c0,0,0,0,0,0
			c-0.2-0.3-0.6-0.3-0.9-0.1c0,0,0,0-0.1,0.1c-0.2,0.2-0.5,0.4-0.8,0.5h-0.1c-1,0.6-1.9,1.3-2.9,1.9l-0.3,0.2
			c-0.9,0.6-1.9,1.3-2.8,2l-0.4-0.4c-0.7-0.6-1.1-1-2-1.6c-0.5-0.4-2.4-1.8-3-2.3l0,0c-0.3-0.2-0.6-0.4-0.9-0.6l-0.1,0l0,0
			c-0.2-0.3-0.7-0.4-1-0.1c-0.3,0.2-0.4,0.5-0.2,0.8c0.1,0.2,0.3,0.4,0.6,0.6h0.1c0.2,0.1,0.4,0.3,0.6,0.4c0,0,0.1,0.1,0.1,0.1
			c0.6,0.4,2.3,1.7,3,2.2s1.3,1,1.9,1.6l0.2,0.2l-1.5,1.1c-1.5,1.2-2.9,2.5-4.4,4c-0.4,0.4-0.8,0.8-1.2,1.2
			c-0.2,0.2-0.3,0.5-0.4,0.7c-0.1,0.4,0.2,0.7,0.6,0.8h0.1c0.3,0,0.6-0.2,0.7-0.6l0,0c0.4-0.4,0.7-0.8,1.1-1.2
			c1.4-1.4,2.8-2.6,4.3-3.9c0.6-0.4,1.1-0.9,1.7-1.3l0.9,0.8c1,0.8,1.7,1.4,2.3,1.9s1.4,1.1,2.4,2c0.6,0.5,1.5,1.3,2.6,2.3l1,0.9
			c0.1,0.1,0.3,0.2,0.5,0.2c0.2,0,0.4-0.1,0.5-0.2c0.3-0.2,0.3-0.7,0.1-0.9C217.7,222.6,217.6,222.6,217.6,222.5z"/>
		<rect x="20.4" y="266.2" class="st2" width="199.3" height="2.3"/>
		<path class="st1" d="M217.6,261.2l-1-0.9c-1.2-1.1-2.1-1.9-2.7-2.4c-1.1-0.9-1.7-1.4-2.5-2c-0.6-0.5-1.3-1-2.3-1.8l-0.6-0.5
			c0.8-0.6,1.7-1.2,2.5-1.7l0.3-0.2c0.9-0.6,1.8-1.3,2.8-1.9c0.4-0.2,0.7-0.4,1.1-0.7c0.3-0.2,0.3-0.7,0.1-1c0,0,0,0,0,0
			c-0.2-0.3-0.7-0.3-1-0.1c0,0,0,0,0,0c-0.2,0.2-0.5,0.4-0.8,0.5h-0.1c-1,0.6-1.9,1.3-2.9,1.9l-0.3,0.2c-0.9,0.6-1.9,1.3-2.8,2
			l-0.4-0.4c-0.7-0.6-1.1-0.9-2-1.6c-0.5-0.4-2.4-1.8-3-2.3l0,0c-0.3-0.2-0.6-0.4-0.9-0.6l-0.1-0.1l0,0c-0.2-0.3-0.7-0.4-1-0.1
			c-0.2,0.2-0.3,0.5-0.2,0.8c0.1,0.3,0.3,0.5,0.6,0.6h0.1c0.2,0.1,0.4,0.3,0.6,0.4l0.1,0.1c0.6,0.4,2.3,1.7,3,2.2s1.3,1,1.9,1.6
			l0.2,0.2c-0.5,0.4-1,0.8-1.5,1.1c-1.5,1.2-3,2.6-4.4,4c-0.4,0.4-0.8,0.8-1.2,1.2c-0.2,0.2-0.3,0.5-0.4,0.7
			c-0.1,0.4,0.2,0.7,0.6,0.8c0,0,0,0,0,0h0.1c0.3,0,0.6-0.2,0.7-0.5l0,0c0.4-0.4,0.7-0.8,1.1-1.2c1.4-1.4,2.8-2.7,4.3-3.9
			c0.6-0.4,1.1-0.9,1.7-1.3l0.9,0.8c1,0.8,1.7,1.4,2.3,1.9s1.4,1.1,2.4,2c0.6,0.5,1.5,1.3,2.6,2.3l1,0.9c0.1,0.1,0.3,0.2,0.5,0.2
			c0.2,0,0.4-0.1,0.5-0.2C217.9,262,217.9,261.6,217.6,261.2C217.6,261.3,217.6,261.3,217.6,261.2z"/>
	</g>
</g>
</svg>
