<?xml version="1.0" encoding="utf-8"?>
<!-- Generator: Adobe Illustrator 25.2.0, SVG Export Plug-In . SVG Version: 6.00 Build 0)  -->
<svg version="1.0" id="Livello_1" xmlns="http://www.w3.org/2000/svg" xmlns:xlink="http://www.w3.org/1999/xlink" x="0px" y="0px"
	 viewBox="0 0 240 290" style="enable-background:new 0 0 240 290;" xml:space="preserve">
<style type="text/css">
	.st0{fill:#EAF4E9;}
	.st1{fill:#75D495;}
	.st2{fill:#90C0A0;}
</style>
<g id="Livello_2_1_">
	<g id="Livello_1-2">
		<path class="st0" d="M4,0h232c2.2,0,4,1.8,4,4v282c0,2.2-1.8,4-4,4H4c-2.2,0-4-1.8-4-4V4C0,1.8,1.8,0,4,0z"/>
		<path class="st1" d="M28,19.3h159.2c4.6,0,8.4,3.8,8.4,8.4l0,0c0,4.6-3.8,8.4-8.4,8.4H28c-4.6,0-8.4-3.8-8.4-8.4l0,0
			C19.6,23.1,23.4,19.3,28,19.3z"/>
		<path class="st2" d="M22.6,56h148.5c1.7,0,3,1.3,3,3v0.2c0,1.7-1.3,3-3,3H22.6c-1.7,0-3-1.3-3-3V59C19.6,57.3,20.9,56,22.6,56z"/>
		<path class="st2" d="M22.6,78.3h124c1.7,0,3,1.3,3,3v0.2c0,1.7-1.3,3-3,3h-124c-1.7,0-3-1.3-3-3v-0.2
			C19.6,79.6,20.9,78.3,22.6,78.3z"/>
		<path class="st2" d="M22.6,100.6h154.9c1.7,0,3,1.3,3,3v0.2c0,1.7-1.3,3-3,3H22.6c-1.7,0-3-1.3-3-3v-0.2
			C19.6,101.9,20.9,100.6,22.6,100.6z"/>
		<path class="st2" d="M40.8,132.1h89.3c1.7,0,3,1.3,3,3v0.2c0,1.7-1.3,3-3,3H40.8c-1.7,0-3-1.3-3-3v-0.2
			C37.8,133.4,39.2,132.1,40.8,132.1z"/>
		<path class="st2" d="M40.8,158.3H202c1.7,0,3,1.3,3,3v0.2c0,1.7-1.3,3-3,3H40.8c-1.7,0-3-1.3-3-3v-0.2
			C37.8,159.7,39.2,158.3,40.8,158.3z"/>
		<path class="st2" d="M40.8,184.6h134.9c1.7,0,3,1.3,3,3v0.2c0,1.7-1.3,3-3,3H40.8c-1.7,0-3-1.3-3-3v-0.2
			C37.8,185.9,39.2,184.6,40.8,184.6z"/>
		<circle class="st1" cx="23" cy="135.5" r="3.4"/>
		<circle class="st1" cx="23" cy="161.4" r="3.4"/>
		<circle class="st1" cx="23" cy="187.3" r="3.4"/>
	</g>
</g>
</svg>
