<?xml version="1.0" encoding="utf-8"?>
<!-- Generator: Adobe Illustrator 24.1.1, SVG Export Plug-In . SVG Version: 6.00 Build 0)  -->
<svg version="1.0" id="Livello_1" xmlns="http://www.w3.org/2000/svg" xmlns:xlink="http://www.w3.org/1999/xlink" x="0px" y="0px"
	 viewBox="0 0 240 290" style="enable-background:new 0 0 240 290;" xml:space="preserve">
<style type="text/css">
	.st0{fill:#FFEEEE;}
	.st1{fill:#F98586;}
	.st2{fill:#F16363;}
</style>
<g id="Livello_2_1_">
	<g id="Livello_1-2">
		<g>
			<path class="st0" d="M4,0h232c2.2,0,4,1.8,4,4v282c0,2.2-1.8,4-4,4H4c-2.2,0-4-1.8-4-4V4C0,1.8,1.8,0,4,0z"/>
			<path class="st1" d="M27.3,19.3h159.2c4.6,0,8.4,3.8,8.4,8.4l0,0c0,4.6-3.8,8.4-8.4,8.4H27.3c-4.6,0-8.4-3.8-8.4-8.4l0,0
				C18.9,23.1,22.7,19.3,27.3,19.3z"/>
			<path class="st2" d="M21.9,56h148.5c1.7,0,3,1.3,3,3v0.2c0,1.7-1.3,3-3,3H21.9c-1.7,0-3-1.3-3-3V59C18.9,57.3,20.3,56,21.9,56z"
				/>
			<path class="st2" d="M21.9,78.3h124c1.7,0,3,1.3,3,3v0.2c0,1.7-1.3,3-3,3h-124c-1.7,0-3-1.3-3-3v-0.2
				C18.9,79.6,20.3,78.3,21.9,78.3z"/>
			<path class="st2" d="M21.9,100.6h154.9c1.7,0,3,1.3,3,3v0.2c0,1.7-1.3,3-3,3H21.9c-1.7,0-3-1.3-3-3v-0.2
				C18.9,101.9,20.3,100.6,21.9,100.6z"/>
			<path class="st2" d="M40.2,132.1h89.3c1.7,0,3,1.3,3,3v0.2c0,1.7-1.3,3-3,3H40.2c-1.7,0-3-1.3-3-3v-0.2
				C37.2,133.4,38.5,132.1,40.2,132.1z"/>
			<path class="st2" d="M40.2,158.3h161.1c1.7,0,3,1.3,3,3v0.2c0,1.7-1.3,3-3,3H40.2c-1.7,0-3-1.3-3-3v-0.2
				C37.2,159.7,38.5,158.3,40.2,158.3z"/>
			<path class="st2" d="M40.2,184.6h134.9c1.7,0,3,1.3,3,3v0.2c0,1.7-1.3,3-3,3H40.2c-1.7,0-3-1.3-3-3v-0.2
				C37.2,185.9,38.5,184.6,40.2,184.6z"/>
			<circle class="st1" cx="22.4" cy="135.5" r="3.4"/>
			<circle class="st1" cx="22.4" cy="161.4" r="3.4"/>
			<circle class="st1" cx="22.4" cy="187.3" r="3.4"/>
			<rect x="20.5" y="266.2" class="st2" width="199.3" height="2.3"/>
			<path class="st1" d="M217.7,251.8c-0.3-0.3-0.7-0.6-1.1-1.1c-1.4-1.3-2.5-2.2-3.2-2.8c-1.3-1.1-2.1-1.7-3-2.4
				c-0.7-0.6-1.5-1.2-2.7-2.2l-0.8-0.6c1-0.7,2-1.4,2.9-2.1l0.4-0.3c1.1-0.8,2.2-1.5,3.3-2.2c0.5-0.2,0.9-0.5,1.3-0.8
				c0.4-0.3,0.4-0.8,0.1-1.2c-0.3-0.4-0.8-0.4-1.2-0.1c0,0-0.1,0-0.1,0.1c-0.3,0.2-0.6,0.4-0.9,0.6l-0.1,0.1
				c-1.2,0.7-2.3,1.5-3.4,2.3l-0.4,0.3c-1.1,0.8-2.2,1.5-3.3,2.3l-0.5-0.5c-0.8-0.7-1.3-1.1-2.4-1.9c-0.6-0.4-2.8-2.2-3.6-2.7H199
				c-0.3-0.3-0.6-0.5-1-0.7l-0.1-0.1l0,0c-0.3-0.4-0.8-0.5-1.1-0.2c-0.3,0.2-0.4,0.6-0.3,1c0.1,0.3,0.4,0.5,0.7,0.7h0.1
				c0.3,0.1,0.5,0.3,0.8,0.5c0.1,0,0.1,0.1,0.2,0.1c0.7,0.5,2.7,2,3.6,2.7s1.5,1.2,2.3,1.9l0.3,0.2c-0.6,0.4-1.2,0.9-1.8,1.4
				c-1.8,1.4-3.4,3-5.2,4.7c-0.5,0.4-0.9,0.9-1.4,1.4c-0.2,0.2-0.4,0.5-0.5,0.9c-0.1,0.4,0.2,0.9,0.7,0.9c0,0,0,0,0,0h0.1
				c0.4,0,0.7-0.3,0.8-0.6l0,0c0.4-0.5,0.9-0.9,1.4-1.4c1.6-1.6,3.3-3.2,5.1-4.6c0.6-0.5,1.3-1,2-1.6l1.1,0.9c1.2,1,2,1.6,2.7,2.2
				c0.9,0.7,1.7,1.3,2.9,2.4c0.7,0.6,1.8,1.5,3.1,2.8l1.1,1.1c0.2,0.2,0.4,0.2,0.6,0.2c0.2,0,0.4-0.1,0.6-0.3
				C218,252.7,218,252.2,217.7,251.8C217.7,251.8,217.7,251.8,217.7,251.8z"/>
		</g>
	</g>
</g>
</svg>
